<svg xmlns="http://www.w3.org/2000/svg" viewBox="0 0 760 440" width="760" height="440" role="img" aria-labelledby="t d" font-family="Arial, Helvetica, sans-serif">
<title id="t">Домашно предимство: основна игра срещу странични залози</title>
<desc id="d">Хоризонтална диаграма: блекджек около 0,5%, Banker 1,06%, 21+3 3,24%, Перфектна двойка 6,11%, двойка в бакарата 10,36%, равенство 14,36%.</desc>
<rect x="8" y="8" width="744" height="424" rx="12" fill="#ffffff" stroke="#d5dae1"/>
<text x="28" y="44" font-size="18" font-weight="700" fill="#1f2937">Домашно предимство: основна игра срещу странични залози</text>
<text x="28" y="66" font-size="12" fill="#4b5563">Дългосрочна статистика, примерни при посочената изплащателна таблица</text>
<text x="28" y="110" font-size="15" font-weight="700" fill="#1f2937">Блекджек, основна игра</text>
<text x="28" y="128" font-size="12" fill="#4b5563">основна стратегия, типични правила</text>
<rect x="252" y="100" width="14.0" height="28" rx="3" fill="#2a7f62"/>
<text x="274.0" y="120" font-size="16" font-weight="700" fill="#1f2937">около 0,5%</text>
<text x="28" y="161" font-size="15" font-weight="700" fill="#1f2937">Бакара, Banker</text>
<text x="28" y="179" font-size="12" fill="#4b5563">8 тестета, комисиона 5%</text>
<rect x="252" y="151" width="29.7" height="28" rx="3" fill="#2a7f62"/>
<text x="289.7" y="171" font-size="16" font-weight="700" fill="#1f2937">1,06%</text>
<text x="28" y="212" font-size="15" font-weight="700" fill="#1f2937">21+3</text>
<text x="28" y="230" font-size="12" fill="#4b5563">печеливши ръце 9 към 1, 6 тестета</text>
<rect x="252" y="202" width="90.7" height="28" rx="3" fill="#d9822b"/>
<text x="350.7" y="222" font-size="16" font-weight="700" fill="#1f2937">3,24%</text>
<text x="28" y="263" font-size="15" font-weight="700" fill="#1f2937">Перфектна двойка</text>
<text x="28" y="281" font-size="12" fill="#4b5563">таблица 25/12/6, 6 тестета</text>
<rect x="252" y="253" width="171.1" height="28" rx="3" fill="#d9822b"/>
<text x="431.1" y="273" font-size="16" font-weight="700" fill="#1f2937">6,11%</text>
<text x="28" y="314" font-size="15" font-weight="700" fill="#1f2937">Бакара, двойка (Pair)</text>
<text x="28" y="332" font-size="12" fill="#4b5563">11 към 1, 8 тестета</text>
<rect x="252" y="304" width="290.1" height="28" rx="3" fill="#c0392b"/>
<text x="550.1" y="324" font-size="16" font-weight="700" fill="#1f2937">10,36%</text>
<text x="28" y="365" font-size="15" font-weight="700" fill="#1f2937">Бакара, равенство (Tie)</text>
<text x="28" y="383" font-size="12" fill="#4b5563">8 към 1, 8 тестета</text>
<rect x="252" y="355" width="402.1" height="28" rx="3" fill="#c0392b"/>
<text x="662.1" y="375" font-size="16" font-weight="700" fill="#1f2937">14,36%</text>
<line x1="252" y1="90" x2="252" y2="396" stroke="#9ca3af"/>
<text x="28" y="416" font-size="12" fill="#4b5563">Източник: Wizard of Odds, преизчислено. 18+ Играйте отговорно.</text>
</svg>